<?xml version="1.0" standalone="no"?><!DOCTYPE svg PUBLIC "-//W3C//DTD SVG 1.1//EN" "http://www.w3.org/Graphics/SVG/1.1/DTD/svg11.dtd"><svg t="1726624588493" class="icon" viewBox="0 0 1024 1024" version="1.1" xmlns="http://www.w3.org/2000/svg" p-id="2291" xmlns:xlink="http://www.w3.org/1999/xlink" width="16" height="16"><path d="M1003.001862 527.865402a129.175985 129.175985 0 0 0-68.351145-114.123374 129.022387 129.022387 0 0 0-114.686567-188.618442h-2.457569a128.919989 128.919989 0 0 0-196.451944-99.326758 129.175985 129.175985 0 0 0-236.745841-1.689579 129.022387 129.022387 0 0 0-198.192722 117.758528h-1.433583a129.022387 129.022387 0 0 0-110.232222 196.503143 129.022387 129.022387 0 0 0 3.686354 211.760553 129.022387 129.022387 0 0 0 112.228997 192.407195 129.022387 129.022387 0 0 0 207.613405 100.453145 129.022387 129.022387 0 0 0 239.817803-0.767991 129.022387 129.022387 0 0 0 192.509593-109.822627 129.022387 129.022387 0 0 0 107.569856-192.458394 129.022387 129.022387 0 0 0 65.074386-112.075399z" fill="#F4AE5B" p-id="2292"></path><path d="M1003.001862 480.659592a129.175985 129.175985 0 0 0-68.351145-114.225772 127.486406 127.486406 0 0 0 14.591817-59.391258 129.227185 129.227185 0 0 0-129.227184-129.227185h-2.508769a129.022387 129.022387 0 0 0-196.451944-99.429157 129.175985 129.175985 0 0 0-236.745841-1.689579 129.022387 129.022387 0 0 0-198.653517 108.901039c0 2.969563 0 5.990325 0.460795 8.550293h-1.433583a129.022387 129.022387 0 0 0-110.232222 196.451945 129.022387 129.022387 0 0 0 3.686354 211.760552 129.022387 129.022387 0 0 0 112.484994 192.509594 129.022387 129.022387 0 0 0 207.613405 100.555543 129.022387 129.022387 0 0 0 239.817802-0.76799 129.022387 129.022387 0 0 0 192.509594-109.822627 129.022387 129.022387 0 0 0 107.569855-192.509594 129.022387 129.022387 0 0 0 64.81839-111.665804z" fill="#D9860E" p-id="2293"></path><path d="M1003.001862 480.659592a129.175985 129.175985 0 0 0-68.351145-114.225772 127.486406 127.486406 0 0 0 14.591817-59.391258 129.227185 129.227185 0 0 0-129.227184-129.227185h-2.508769a129.022387 129.022387 0 0 0-196.451944-99.429157 129.175985 129.175985 0 0 0-236.745841-1.689579 129.022387 129.022387 0 0 0-198.653517 108.901039c0 2.969563 0 5.990325 0.460795 8.550293h-1.433583a129.022387 129.022387 0 0 0-110.232222 196.451945 129.022387 129.022387 0 0 0 3.686354 211.760552 129.022387 129.022387 0 0 0 112.484994 192.509594 129.022387 129.022387 0 0 0 207.613405 100.555543 129.022387 129.022387 0 0 0 239.817802-0.76799 129.022387 129.022387 0 0 0 192.509594-109.822627 129.022387 129.022387 0 0 0 107.569855-192.509594 129.022387 129.022387 0 0 0 64.81839-111.665804z" fill="#D17C42" opacity=".8" p-id="2294"></path><path d="M837.423132 416.557993a146.686166 146.686166 0 0 0-190.052024-140.183848 146.583768 146.583768 0 0 0-292.553143 9.574281 146.686166 146.686166 0 0 0-87.704504 278.012524 146.583768 146.583768 0 1 0 244.630542 161.124386 146.583768 146.583768 0 1 0 236.336246-173.412232 146.583768 146.583768 0 0 0 89.342883-135.16631z" fill="#E2951A" p-id="2295"></path><path d="M579.99275 405.857327v-19.967751h-49.970575v14.950214c0 9.369483 0.665592 27.033262 1.996775 52.991337v11.007863c0 3.99355-1.689579 6.348721-5.017538 7.014312-11.98065 1.331183-24.319696 1.996775-37.017137 1.996775 1.331183-16.639792 2.047974-40.959488 2.047975-73.010287v-15.001413h-49.048987v10.035075c0 3.327958-1.331183 5.324733-3.99355 5.990325a149.041337 149.041337 0 0 1-24.985288 2.969563c-4.659142 0.665592-7.679904 1.023987-9.011087 1.023987 1.331183-16.690991 2.047974-34.661967 2.047974-54.015325V334.843814c0-4.607942-0.358396-12.287846-1.023987-22.988512v-22.015725l45.004237 12.03185h40.959488v-5.017538c0-18.022175-0.665592-35.685954-1.996775-52.991337l47.001013 3.99355c3.99355 0 5.990325 1.023987 5.990325 3.020762 0 5.324733-4.300746 8.959888-12.953438 10.956663v40.0379h44.953038l12.031849-20.01895 35.99315 15.001412c3.99355 2.047974 5.63193 3.99355 5.017538 5.990325 0.665592 3.327958-2.662367 7.679904-10.035075 13.004638v23.039712c0 25.292484 0.358396 44.287446 1.023987 56.984888 0.665592 2.662367-0.665592 4.607942-3.99355 5.990325a136.651092 136.651092 0 0 1-35.020362 3.99355z m0-97.995575h-49.970575v71.9863h49.970575V307.861752z m-137.009487 0v71.9863h48.997787V307.861752h-48.997787zM528.0254 500.83214l43.98025 4.044749c3.327958 0 5.017537 1.331183 5.017537 3.99355 0.665592 3.327958-3.071962 6.655917-11.007862 9.983875v48.997788c3.327958 11.98065 6.297521 23.039712 8.959888 33.023587 8.703891-18.022175 15.001412-35.685954 19.046162-53.042537l40.959488 22.015725c2.662367 1.331183 3.99355 2.662367 3.99355 3.99355 0.665592 3.99355-3.99355 5.990325-13.977425 5.990325-13.311834 12.03185-28.313246 23.039712-45.004238 33.023587 12.697441 33.279584 32.357996 58.36727 58.981663 75.007063l-1.023987 3.99355c-15.9742 7.9871-27.647654 20.326146-34.969163 37.017137-23.295709-30.719616-36.658742-71.371908-39.935501-122.008075-4.710341 61.336833-36.709941 102.961913-96.049999 124.977638l-1.996775-2.969563c28.00605-24.678092 45.669829-48.690591 52.991337-72.037499 8.703891-23.295709 12.697441-60.671242 12.03185-111.973001 0-7.9871-0.665592-22.681316-2.047975-44.031449z m-51.045762 156.00445c-5.990325 0-9.62548-3.635155-10.956663-11.007863a84.939738 84.939738 0 0 0-7.014313-30.975613v101.989125c0.665592 6.655917-2.047974 10.342271-7.9871 11.007863-10.700666 1.331183-19.711754 1.996775-27.033262 1.996775 0-8.703891 0.358396-23.346908 1.023987-44.03145v-40.959488c-8.703891 13.311834-20.326146 26.623667-35.020362 39.9867l-2.969563-2.969562a420.551543 420.551543 0 0 0 34.969163-99.019563h-30.002825v-7.014312h33.023587v-32.972388l-33.023587 1.996775-1.023987-3.020762c35.327558-13.311834 59.698454-26.316471 73.061487-39.013912l32.972388 25.036487c2.047974 0.665592 2.662367 1.996775 2.047974 3.99355 0 3.327958-2.047974 5.017537-6.041525 5.017537a26.726066 26.726066 0 0 1-9.983875-2.047974c-8.0383 2.047974-16.0254 3.379158-24.063699 4.044749v36.965938h3.071962l11.98065-16.998188 20.991737 16.0254c1.996775 1.996775 2.662367 3.635155 1.996776 4.966338-1.331183 2.047974-3.686354 3.020762-7.014313 3.020762h-30.975613v22.015725c24.678092 9.318284 37.324333 19.96775 37.989926 31.9996-0.665592 12.646242-7.321508 19.302159-19.967751 19.967751z m24.063699-34.969163c-10.751866-0.665592-16.383795-7.014312-17.049387-18.994963 0-6.655917 3.020762-12.339046 9.011087-16.998187 8.703891-6.655917 14.335821-16.998188 16.998188-31.026813h3.020762c7.321508 11.315059 10.956663 23.039712 10.956663 35.020363-0.665592 20.633342-8.294296 31.334008-22.988512 31.9996z" fill="#FFF3DD" p-id="2296"></path></svg>